<svg xmlns="http://www.w3.org/2000/svg" viewBox="0 0 288011 287998">
    <path d="M144005,0 C223533,0,288011,64465,288011,143993 C288011,223533,223533,287998,144005,287998 C64478,287998,0,223533,0,143993 C0,64465,64478,0,144005,0 z" fill="#ae6b5b" />
    <path transform="translate(75282,958)" d="M78308,0 L97748,1960 L111622,6266 L210058,169540 L209803,172063 L201883,197581 L196532,188607 L106020,38467 L49085,141756 L0,141756 L78308,0 z" fill="#ffffff" />
    <path transform="translate(26753,82676)" d="M159305,0 L238903,137718 L236666,141839 C231491,149500,225597,156636,219082,163151 L215781,165875 L18729,165875 L15427,163151 L0,144454 L17966,144069 L193290,144069 L134616,42951 L159305,0 z" fill="#ffffff" />
    <path transform="translate(5518,952)" d="M128961,0 L120519,14541 L32851,166370 L149767,166370 L174532,209219 L11291,209219 L5799,199102 L0,180421 L101635,4396 L109466,1965 L128961,0 z" fill="#ffffff" />
</svg>